PathFileType	4	(X/Y/Z)	C:/Users/beibeiliu/ov580/test_trc\sequence.12_training_dense_left.trc
DataRate	CameraRate	NumFrames	NumMarkers	Units	OrigDataRate	OrigDataStartFrame	OrigNumFrames
120	120	11	19	mm	120	41	324
Frame#	Time	ThumbCMC			ThumbMCP			ThumbIP			ThumbTip			IndexMCP			IndexPIP			IndexTip			MiddleMCP			MiddlePIP			MiddleTip			RingMCP			RingPIP			RingTip			PinkyMCP			PinkyPIP			PinkyTip			BackHand1			BackHand2			BackHand3	
		X0	Y0	Z0	X1	Y1	Z1	X2	Y2	Z2	X3	Y3	Z3	X4	Y4	Z4	X5	Y5	Z5	X6	Y6	Z6	X7	Y7	Z7	X8	Y8	Z8	X9	Y9	Z9	X10	Y10	Z10	X11	Y11	Z11	X12	Y12	Z12	X13	Y13	Z13	X14	Y14	Z14	X15	Y15	Z15	X16	Y16	Z16	X17	Y17	Z17	X18	Y18	Z18	
40	0.333333	-185.216	-32.0607	2.31421	-190.197	-56.4858	-0.925785	-184.848	-77.5674	-6.01968	-180.161	-96.6514	-8.59147	-192.705	-36.0384	-66.3916	-189.829	-49.0101	-84.4335	-193.888	-61.0656	-103.094	-213.249	-18.9504	-71.796	-216.168	-23.9249	-95.6233	-221.154	-34.5419	-119.435	-231.75	-9.93064	-63.7121	-235.923	-13.857	-86.1018	-242.688	-21.4641	-108.524	-252.146	-5.73798	-49.4514	-267.861	-9.1909	-61.015	-277.556	-12.5734	-78.1169	-221.468	5.17162	-30.3307	-213.294	16.1237	-6.20111	-193.894	-1.52802	-17.6181	
41	0.341667	-188.02	-33.9691	2.69708	-195.418	-56.8529	2.64943	-188.813	-83.1449	-4.45308	-186.953	-100.021	-9.56506	-196.952	-42.1278	-61.558	-195.54	-53.3629	-81.2124	-201.325	-67.715	-99.6611	-218.868	-24.2492	-71.9252	-221.963	-31.1383	-95.4502	-233.397	-39.7343	-117.662	-237.632	-14.1885	-61.9404	-240.815	-21.9522	-84.4949	-247.882	-29.9007	-104.379	-260.925	-8.34365	-47.3957	-273.192	-14.826	-60.4932	-287.757	-17.9254	-75.6237	-223.492	0.458345	-28.2992	-214.649	10.8642	-6.31256	-195.989	-6.69719	-15.9421	
42	0.35	-194.355	-36.909	1.45565	-194.191	-61.8938	3.7968	-195.828	-84.2607	-5.69144	-192.384	-101.027	-7.45025	-199.082	-47.0247	-59.4271	-200.686	-61.878	-82.2811	-204.891	-78.9281	-100.093	-223.496	-30.4368	-71.77	-229.416	-36.5295	-94.4924	-236.733	-50.6545	-117.988	-242.515	-20.104	-60.3055	-251.441	-25.7126	-84.1302	-255.66	-35.8666	-102.145	-265.149	-13.5846	-45.1957	-277.41	-20.3286	-58.696	-289.368	-24.3935	-72.461	-226.355	-2.39672	-25.4707	-219.69	9.11886	-4.93968	-201.085	-9.35733	-15.8691	
43	0.358333	-195.187	-37.6253	3.53048	-199.721	-62.4659	2.37469	-196.092	-82.5608	-1.05328	-192.043	-105.27	-5.82849	-207.97	-49.7284	-61.4634	-203.363	-64.3257	-77.7548	-208.661	-79.7534	-94.7014	-229.412	-33.3189	-66.1349	-231.857	-43.5635	-93.9091	-242.961	-54.002	-112.462	-246.527	-25.328	-61.6296	-253.846	-30.3136	-79.5191	-264.47	-39.6395	-99.1707	-268.031	-19.802	-46.1368	-281.4	-24.6868	-54.9344	-292.286	-28.3878	-66.9984	-230.023	-7.10313	-27.3605	-226.07	9.13636	-5.21361	-203.373	-11.8862	-15.0321	
44	0.366667	-201.015	-34.0055	4.18264	-199.139	-63.4675	5.79717	-194.125	-87.0423	-1.00917	-193.742	-102.799	-4.39697	-210.322	-53.719	-57.4151	-209.991	-67.3782	-76.0392	-215.414	-86.7725	-93.3899	-231.395	-38.679	-63.7368	-238.755	-46.1565	-87.7749	-247.646	-60.9386	-110.424	-253.232	-29.3035	-60.4135	-259.691	-35.6438	-77.0859	-270.762	-46.6453	-96.0711	-270.492	-22.8971	-40.3763	-288.763	-30.685	-53.0311	-299.647	-38.1504	-67.4411	-235.748	-8.74102	-24.833	-226.743	4.65049	-6.35565	-207.198	-14.0653	-19.3247	
45	0.375	-202.821	-35.3222	3.57938	-201.129	-63.4811	5.5847	-197.594	-81.4959	3.37832	-190.57	-97.6232	2.49226	-213.689	-56.7314	-56.694	-213.066	-74.4015	-74.4172	-216.92	-92.4063	-88.4326	-237.451	-43.7794	-65.3736	-247.736	-54.4198	-88.5669	-254.092	-67.7359	-106.086	-254.345	-35.5802	-56.4005	-264.457	-43.4948	-73.6955	-276.328	-56.806	-93.676	-279.656	-29.8536	-40.234	-293.398	-37.3346	-47.0623	-303.527	-44.4079	-59.41	-244.86	-9.53154	-23.9847	-232.467	6.11598	-6.19603	-214.042	-13.0456	-17.3868	
46	0.383333	-204.45	-33.6834	1.42568	-199.015	-58.1285	8.67451	-193.686	-77.0263	5.36592	-187.864	-97.2252	2.32715	-217.068	-57.2474	-54.1302	-217.061	-73.3552	-70.6644	-221.409	-94.2757	-84.4315	-241.1	-48.2316	-63.105	-249.6	-62.4123	-86.0015	-259.128	-76.7772	-100.663	-265.254	-38.9871	-51.3758	-269.658	-51.7147	-71.1184	-281.743	-63.8211	-85.3817	-285.766	-37.4909	-36.364	-293.722	-45.7337	-42.5222	-307.517	-56.4825	-51.4077	-248.589	-14.7885	-24.978	-243.07	4.39774	-5.6142	-220.212	-13.3767	-18.1159	
47	0.391667	-208.701	-29.5832	3.94735	-205.52	-54.5891	8.60338	-189.071	-73.2843	7.43083	-180.135	-87.1879	8.60148	-221.005	-60.0977	-54.5065	-217.99	-75.8758	-66.0032	-217.579	-97.5334	-79.643	-248.132	-51.0982	-57.209	-256.732	-66.5776	-79.2589	-261.475	-85.9091	-95.9364	-270.888	-47.936	-51.1728	-275.007	-60.4819	-66.0774	-285.259	-74.8455	-81.0763	-287.297	-44.2304	-30.8107	-301.295	-56.6658	-37.2185	-313.37	-69.5644	-46.8457	-257.444	-16.9432	-19.7248	-250.439	1.37331	-8.85242	-227.969	-11.8537	-18.9948	
48	0.4	-216.21	-23.1705	4.58174	-208.89	-48.9963	10.1997	-190.055	-65.5347	9.00079	-182.061	-82.3213	7.50882	-226.112	-59.2239	-51.4228	-224.016	-78.0378	-65.5681	-221.541	-98.7443	-75.9369	-255.783	-55.372	-54.4937	-257.938	-74.1315	-76.2365	-263.49	-95.6225	-91.175	-272.136	-52.9847	-44.5988	-284.386	-68.1404	-62.3545	-285.592	-86.8747	-77.2383	-296.573	-51.8115	-26.7613	-306.294	-66.8762	-34.0109	-314.838	-77.1446	-40.0525	-267.041	-18.7052	-19.5569	-262.296	-1.83451	-8.10982	-240.99	-10.4719	-17.9183	
49	0.408333	-219.79	-24.6258	2.80592	-212.959	-45.6423	9.61376	-196.21	-61.1144	8.69891	-181.319	-74.9092	8.37722	-231.749	-62.3743	-51.2002	-226.11	-82.076	-63.4027	-222.254	-100.48	-71.8758	-260.481	-59.5849	-54.0751	-265.436	-78.3781	-71.058	-273.108	-102.085	-85.7299	-280.915	-57.5142	-43.1046	-286.588	-75.5141	-59.167	-293.177	-91.2412	-70.1778	-294.763	-54.6445	-22.663	-305.89	-72.0822	-29.2447	-321.031	-86.2181	-34.7061	-273.56	-23.5588	-21.2926	-268.246	-3.44444	-5.92886	-247.183	-12.923	-18.6762	
50	0.416667	-228.136	-19.6557	5.72201	-215.629	-44.0835	10.2314	-200.817	-57.8793	10.2184	-183.058	-67.6913	10.7007	-235.335	-60.6702	-45.1664	-233.506	-82.9585	-61.631	-225.255	-99.9064	-69.2191	-266.008	-63.4748	-50.3268	-270.237	-82.9483	-68.2092	-275.665	-103.86	-79.5495	-283.626	-60.8172	-39.1374	-292.557	-81.1153	-55.2212	-295.209	-99.7242	-67.4516	-303.351	-62.9211	-20.0093	-312.848	-76.22	-22.9727	-319.531	-91.7085	-30.9973	-280.039	-25.3797	-17.6843	-279.852	-5.55737	-6.62499	-255.394	-14.2625	-18.5917	
